<svg xmlns="http://www.w3.org/2000/svg" xmlns:xlink="http://www.w3.org/1999/xlink" width="500" zoomAndPan="magnify" viewBox="0 0 375 374.999991" height="500" preserveAspectRatio="xMidYMid meet" version="1.0"><defs><clipPath id="355a7ce12b"><path d="M 126.390625 206 L 157 206 L 157 227.078125 L 126.390625 227.078125 Z M 126.390625 206 " clip-rule="nonzero"/></clipPath><clipPath id="42b1e7ec0c"><path d="M 149 201.578125 L 153 201.578125 L 153 205 L 149 205 Z M 149 201.578125 " clip-rule="nonzero"/></clipPath><clipPath id="6e47b48ea0"><path d="M 153 201.578125 L 159.390625 201.578125 L 159.390625 208 L 153 208 Z M 153 201.578125 " clip-rule="nonzero"/></clipPath><clipPath id="7a0a14e883"><path d="M 155 192.503906 L 170.207031 192.503906 L 170.207031 236 L 155 236 Z M 155 192.503906 " clip-rule="nonzero"/></clipPath><clipPath id="2a371d2b51"><path d="M 113.785156 192.503906 L 129.535156 192.503906 L 129.535156 236 L 113.785156 236 Z M 113.785156 192.503906 " clip-rule="nonzero"/></clipPath><clipPath id="ac3b6364ef"><path d="M 55.136719 101 L 205.886719 101 L 205.886719 235.867188 L 55.136719 235.867188 Z M 55.136719 101 " clip-rule="nonzero"/></clipPath><clipPath id="b6b5de63cf"><path d="M 176 134 L 205.886719 134 L 205.886719 235.867188 L 176 235.867188 Z M 176 134 " clip-rule="nonzero"/></clipPath><clipPath id="d8ab5df659"><path d="M 205.535156 134.660156 L 315 134.660156 L 315 279.410156 L 205.535156 279.410156 Z M 205.535156 134.660156 " clip-rule="nonzero"/></clipPath></defs><g clip-path="url(#355a7ce12b)"><path fill="#ffffff" d="M 129.992188 206.414062 L 143.019531 206.414062 L 143.019531 207.472656 L 131.546875 207.472656 C 131.125 207.472656 130.777344 207.820312 130.777344 208.242188 L 130.777344 220.285156 C 130.777344 220.710938 131.125 221.054688 131.546875 221.054688 L 151.527344 221.054688 C 151.953125 221.054688 152.300781 220.710938 152.300781 220.285156 L 152.300781 216.441406 L 153.976562 216.441406 L 153.976562 221.222656 C 153.976562 221.523438 153.824219 221.792969 153.59375 221.953125 L 153.976562 221.953125 C 153.976562 221.953125 154.921875 223.0625 156.8125 225.285156 C 156.554688 226.300781 156.039062 226.898438 155.265625 227.078125 C 155.265625 227.078125 146.242188 227.078125 128.199219 227.078125 C 127.308594 227.054688 126.707031 226.457031 126.394531 225.285156 C 126.394531 225.285156 127.339844 224.171875 129.230469 221.953125 L 129.484375 221.953125 C 129.25 221.792969 129.101562 221.523438 129.101562 221.222656 L 129.101562 207.304688 C 129.101562 206.816406 129.503906 206.414062 129.992188 206.414062 Z M 139.410156 225.796875 L 143.792969 225.796875 C 144.007812 225.796875 144.179688 225.96875 144.179688 226.179688 C 144.179688 226.390625 144.007812 226.566406 143.792969 226.566406 L 139.410156 226.566406 C 139.199219 226.566406 139.023438 226.390625 139.023438 226.179688 C 139.023438 225.96875 139.199219 225.796875 139.410156 225.796875 Z M 136.960938 225.410156 C 137.476562 224.644531 137.734375 224.257812 137.734375 224.257812 C 142.890625 224.257812 145.46875 224.257812 145.46875 224.257812 C 145.984375 225.027344 146.242188 225.410156 146.242188 225.410156 C 140.054688 225.410156 136.960938 225.410156 136.960938 225.410156 Z M 136.960938 225.410156 " fill-opacity="1" fill-rule="evenodd"/></g><path fill="#233dff" d="M 139.539062 214.519531 L 142.117188 214.519531 L 142.117188 217.082031 L 139.539062 217.082031 Z M 139.539062 214.519531 " fill-opacity="1" fill-rule="evenodd"/><path fill="#233dff" d="M 143.535156 214.390625 L 145.824219 214.390625 L 145.824219 216.667969 L 143.535156 216.667969 Z M 143.535156 214.390625 " fill-opacity="1" fill-rule="evenodd"/><path fill="#233dff" d="M 151.648438 210.417969 L 156.546875 210.417969 L 156.546875 215.289062 L 151.648438 215.289062 Z M 151.648438 210.417969 " fill-opacity="1" fill-rule="evenodd"/><path fill="#233dff" d="M 147.804688 213.511719 L 150.625 213.511719 L 150.625 216.3125 L 147.804688 216.3125 Z M 147.804688 213.511719 " fill-opacity="1" fill-rule="evenodd"/><path fill="#233dff" d="M 145.226562 210.433594 L 148.046875 210.433594 L 148.046875 213.238281 L 145.226562 213.238281 Z M 145.226562 210.433594 " fill-opacity="1" fill-rule="evenodd"/><path fill="#233dff" d="M 144.1875 206.839844 L 147.007812 206.839844 L 147.007812 209.644531 L 144.1875 209.644531 Z M 144.1875 206.839844 " fill-opacity="1" fill-rule="evenodd"/><path fill="#233dff" d="M 141.230469 211.589844 L 143.519531 211.589844 L 143.519531 213.863281 L 141.230469 213.863281 Z M 141.230469 211.589844 " fill-opacity="1" fill-rule="evenodd"/><path fill="#233dff" d="M 148.5625 205.679688 L 152.558594 205.679688 L 152.558594 209.652344 L 148.5625 209.652344 Z M 148.5625 205.679688 " fill-opacity="1" fill-rule="evenodd"/><g clip-path="url(#42b1e7ec0c)"><path fill="#233dff" d="M 149.34375 201.96875 L 152.164062 201.96875 L 152.164062 204.773438 L 149.34375 204.773438 Z M 149.34375 201.96875 " fill-opacity="1" fill-rule="evenodd"/></g><g clip-path="url(#6e47b48ea0)"><path fill="#233dff" d="M 153.460938 201.578125 L 159.390625 201.578125 L 159.390625 207.472656 L 153.460938 207.472656 Z M 153.460938 201.578125 " fill-opacity="1" fill-rule="evenodd"/></g><g clip-path="url(#7a0a14e883)"><path fill="#233dff" d="M 155.289062 234.144531 C 157.25 233.90625 159.515625 234.6875 161.316406 233.589844 C 163.0625 232.519531 162.886719 229.996094 162.804688 228.214844 C 162.625 224.1875 161.671875 219.371094 164.40625 215.941406 C 165.054688 215.132812 165.878906 214.472656 166.800781 214.058594 C 166.207031 213.738281 165.660156 213.324219 165.183594 212.84375 C 163.785156 211.4375 163.019531 209.542969 162.71875 207.589844 C 162.378906 205.390625 162.59375 203.171875 162.753906 200.964844 C 162.835938 199.828125 162.90625 198.6875 162.855469 197.546875 C 162.820312 196.726562 162.722656 195.738281 162.15625 195.097656 C 161.496094 194.351562 160.375 194.160156 159.4375 194.140625 C 158.175781 194.109375 156.929688 194.308594 155.667969 194.15625 C 155.171875 194.097656 154.75 192.855469 155.441406 192.9375 C 157.417969 193.175781 159.453125 192.511719 161.339844 193.390625 C 163.160156 194.234375 163.738281 196.21875 163.820312 198.09375 C 163.921875 200.378906 163.5625 202.652344 163.507812 204.933594 C 163.457031 206.949219 163.628906 209.09375 164.664062 210.863281 C 165.664062 212.570312 167.585938 213.726562 169.566406 213.445312 C 169.992188 213.386719 170.441406 214.234375 170.234375 214.5625 C 170.222656 214.753906 170.117188 214.890625 169.875 214.855469 C 168.085938 214.605469 166.339844 215.589844 165.238281 216.96875 C 163.964844 218.5625 163.542969 220.664062 163.472656 222.667969 C 163.398438 224.910156 163.742188 227.136719 163.796875 229.371094 C 163.839844 231.183594 163.808594 233.441406 162.207031 234.617188 C 160.335938 235.988281 157.859375 235.132812 155.753906 235.386719 C 155.234375 235.449219 154.695312 234.21875 155.289062 234.144531 Z M 155.289062 234.144531 " fill-opacity="1" fill-rule="nonzero"/></g><g clip-path="url(#2a371d2b51)"><path fill="#ffffff" d="M 128.9375 234.144531 C 126.976562 233.90625 124.710938 234.6875 122.910156 233.589844 C 121.160156 232.519531 121.339844 229.996094 121.417969 228.214844 C 121.601562 224.1875 122.554688 219.371094 119.820312 215.941406 C 119.171875 215.132812 118.347656 214.472656 117.425781 214.058594 C 118.019531 213.738281 118.566406 213.324219 119.042969 212.84375 C 120.441406 211.4375 121.207031 209.542969 121.507812 207.589844 C 121.847656 205.390625 121.632812 203.171875 121.472656 200.964844 C 121.386719 199.828125 121.320312 198.6875 121.371094 197.546875 C 121.40625 196.726562 121.503906 195.738281 122.070312 195.097656 C 122.730469 194.351562 123.851562 194.160156 124.789062 194.140625 C 126.050781 194.109375 127.296875 194.308594 128.554688 194.15625 C 129.050781 194.097656 129.476562 192.855469 128.78125 192.9375 C 126.808594 193.175781 124.773438 192.511719 122.882812 193.390625 C 121.066406 194.234375 120.488281 196.21875 120.402344 198.09375 C 120.304688 200.378906 120.664062 202.652344 120.71875 204.933594 C 120.769531 206.949219 120.59375 209.09375 119.5625 210.863281 C 118.5625 212.570312 116.640625 213.726562 114.660156 213.445312 C 114.234375 213.386719 113.785156 214.234375 113.992188 214.5625 C 114.003906 214.753906 114.109375 214.890625 114.351562 214.855469 C 116.140625 214.605469 117.886719 215.589844 118.988281 216.96875 C 120.261719 218.5625 120.683594 220.664062 120.75 222.667969 C 120.828125 224.910156 120.484375 227.136719 120.429688 229.371094 C 120.386719 231.183594 120.417969 233.441406 122.019531 234.617188 C 123.890625 235.988281 126.367188 235.132812 128.472656 235.386719 C 128.992188 235.449219 129.53125 234.21875 128.9375 234.144531 Z M 128.9375 234.144531 " fill-opacity="1" fill-rule="nonzero"/></g><g clip-path="url(#ac3b6364ef)"><path fill="#cae8ff" d="M 205.878906 119.511719 C 205.878906 104.238281 188.234375 95.65625 176.148438 105.054688 L 84.164062 176.550781 L 84.164062 141.671875 L 97.46875 152.152344 L 121.089844 133.882812 L 84.949219 105.425781 C 72.878906 95.921875 55.128906 104.484375 55.128906 119.816406 L 55.128906 235.839844 L 205.878906 119.511719 " fill-opacity="1" fill-rule="nonzero"/></g><g clip-path="url(#b6b5de63cf)"><path fill="#233dff" d="M 176.84375 156.421875 L 176.84375 221.375 C 176.84375 229.363281 183.34375 235.839844 191.359375 235.839844 C 199.378906 235.839844 205.878906 229.363281 205.878906 221.375 L 205.878906 134.28125 L 176.84375 156.421875 " fill-opacity="1" fill-rule="nonzero"/></g><g clip-path="url(#d8ab5df659)"><path fill="#233dff" d="M 205.535156 158.894531 C 224.355469 158.875 243.175781 158.839844 261.992188 158.929688 C 271.828125 158.976562 278.332031 168.136719 275.214844 177.210938 C 273.269531 182.878906 268.117188 186.421875 261.332031 186.445312 C 242.730469 186.515625 224.132812 186.484375 205.53125 186.492188 L 205.53125 210.691406 C 225.996094 210.71875 246.457031 210.746094 266.921875 210.792969 C 278.382812 210.820312 287.242188 217.257812 290.070312 227.46875 C 292.984375 238.011719 288.679688 247.964844 278.699219 254.085938 L 278.699219 279.386719 C 292.152344 277.554688 307.167969 264.644531 312.007812 249.847656 C 319.515625 226.871094 312.398438 208.390625 293.558594 193.851562 C 293.753906 193.4375 293.914062 193.003906 294.152344 192.609375 C 301.757812 179.9375 302.238281 166.902344 295.023438 154.105469 C 287.589844 140.917969 275.769531 134.679688 260.6875 134.671875 C 242.304688 134.667969 223.917969 134.667969 205.535156 134.667969 Z M 205.535156 158.894531 " fill-opacity="1" fill-rule="nonzero"/></g></svg>