<svg xmlns="http://www.w3.org/2000/svg" xmlns:xlink="http://www.w3.org/1999/xlink" width="500" zoomAndPan="magnify" viewBox="0 0 375 374.999991" height="500" preserveAspectRatio="xMidYMid meet" version="1.0"><defs><clipPath id="35a7ddb5bd"><path d="M 35.714844 88 L 208.214844 88 L 208.214844 243.386719 L 35.714844 243.386719 Z M 35.714844 88 " clip-rule="nonzero"/></clipPath><clipPath id="260fdbae29"><path d="M 174 126 L 208.214844 126 L 208.214844 243.386719 L 174 243.386719 Z M 174 126 " clip-rule="nonzero"/></clipPath><clipPath id="dc9041a323"><path d="M 208.179688 126.90625 L 335 126.90625 L 335 292.65625 L 208.179688 292.65625 Z M 208.179688 126.90625 " clip-rule="nonzero"/></clipPath></defs><g clip-path="url(#35a7ddb5bd)"><path fill="#cae8ff" d="M 208.203125 109.605469 C 208.203125 92.046875 188.015625 82.175781 174.183594 92.980469 L 68.929688 175.183594 L 68.929688 135.082031 L 84.15625 147.132812 L 111.183594 126.128906 L 69.828125 93.410156 C 56.015625 82.480469 35.703125 92.328125 35.703125 109.953125 L 35.703125 243.355469 L 208.203125 109.605469 " fill-opacity="1" fill-rule="nonzero"/></g><g clip-path="url(#260fdbae29)"><path fill="#233dff" d="M 174.976562 152.042969 L 174.976562 226.722656 C 174.976562 235.910156 182.414062 243.355469 191.589844 243.355469 C 200.765625 243.355469 208.203125 235.910156 208.203125 226.722656 L 208.203125 126.585938 L 174.976562 152.042969 " fill-opacity="1" fill-rule="nonzero"/></g><g clip-path="url(#dc9041a323)"><path fill="#233dff" d="M 208.179688 154.65625 C 229.847656 154.636719 251.519531 154.59375 273.183594 154.699219 C 284.507812 154.753906 291.992188 165.238281 288.402344 175.632812 C 286.164062 182.121094 280.234375 186.179688 272.421875 186.207031 C 251.007812 186.285156 229.589844 186.25 208.175781 186.257812 L 208.175781 213.964844 C 231.738281 213.996094 255.296875 214.027344 278.859375 214.082031 C 292.054688 214.113281 302.25 221.484375 305.507812 233.179688 C 308.863281 245.25 303.910156 256.648438 292.417969 263.65625 L 292.417969 292.625 C 307.90625 290.527344 325.195312 275.742188 330.765625 258.800781 C 339.410156 232.496094 331.214844 211.335938 309.527344 194.683594 C 309.75 194.210938 309.9375 193.714844 310.210938 193.265625 C 318.964844 178.753906 319.515625 163.828125 311.210938 149.175781 C 302.652344 134.078125 289.042969 126.933594 271.679688 126.925781 C 250.515625 126.921875 229.34375 126.921875 208.179688 126.921875 Z M 208.179688 154.65625 " fill-opacity="1" fill-rule="nonzero"/></g></svg>